<svg xmlns="http://www.w3.org/2000/svg" xmlns:xlink="http://www.w3.org/1999/xlink" width="860" zoomAndPan="magnify" viewBox="0 0 645 591.000005" height="788" preserveAspectRatio="xMidYMid meet" version="1.0"><defs><clipPath id="id1"><path d="M 234 292 L 609.507812 292 L 609.507812 313 L 234 313 Z M 234 292 " clip-rule="nonzero"/></clipPath></defs><path fill="#8a999f" d="M 329.660156 283.933594 L 348.863281 286.019531 L 399.859375 183.289062 L 381.503906 185.792969 L 329.660156 283.933594 " fill-opacity="1" fill-rule="nonzero"/><path fill="#384e54" d="M 340.625 266.75 L 350.636719 270.921875 L 388.175781 194.140625 L 379 194.140625 L 340.625 266.75 " fill-opacity="1" fill-rule="nonzero"/><path fill="#8a999f" d="M 238.421875 283.851562 L 238.421875 293.726562 L 354.386719 293.726562 L 354.386719 285.105469 C 354.386719 284.410156 353.828125 283.851562 353.136719 283.851562 L 238.421875 283.851562 " fill-opacity="1" fill-rule="nonzero"/><path fill="#ffad81" d="M 327.597656 560.695312 L 292.621094 568.59375 L 281.335938 518.570312 L 316.3125 510.679688 L 327.597656 560.695312 " fill-opacity="1" fill-rule="nonzero"/><path fill="#f76363" d="M 287.40625 571.027344 C 287.515625 571.179688 287.621094 571.320312 287.734375 571.460938 L 287.890625 571.660156 C 291.183594 575.804688 293.984375 575.78125 293.984375 575.78125 L 306.429688 577.214844 C 306.746094 577.207031 307.058594 577.195312 307.386719 577.171875 C 308.265625 577.113281 309.191406 577.027344 310.140625 576.921875 C 312.53125 576.675781 315.058594 576.421875 317.285156 576.777344 L 317.3125 576.78125 C 317.796875 576.859375 318.265625 576.96875 318.71875 577.109375 C 318.871094 577.160156 319.019531 577.207031 319.171875 577.253906 C 319.386719 577.324219 319.605469 577.394531 319.8125 577.457031 L 319.824219 577.464844 C 324.515625 578.957031 328.382812 580.144531 332.136719 580.9375 C 332.539062 581.019531 332.945312 581.105469 333.347656 581.183594 L 333.734375 581.253906 C 339.945312 582.382812 346.132812 582.394531 355.570312 580.890625 C 356.671875 580.714844 357.773438 580.53125 358.867188 580.332031 C 374.839844 577.445312 377.328125 567.710938 377.59375 563.171875 C 377.183594 562.648438 376.679688 562.175781 376.121094 561.753906 C 375.136719 561.027344 373.964844 560.449219 372.722656 560 C 367.832031 558.21875 361.804688 558.328125 361.804688 558.328125 C 348.792969 555.175781 327.382812 539.867188 327.382812 539.867188 C 327.113281 539.710938 326.835938 539.652344 326.554688 539.695312 C 325.808594 539.792969 325.039062 540.5625 324.277344 541.746094 C 321.246094 546.433594 318.332031 557.621094 317.324219 559.449219 C 311.242188 560.101562 305.042969 559.296875 299.117188 557.105469 C 298.617188 556.917969 295.527344 555.367188 292.902344 553.730469 C 291.722656 552.996094 290.644531 552.25 289.921875 551.597656 C 289.289062 551.011719 288.945312 550.511719 289.074219 550.167969 C 288.34375 552.066406 287.929688 556.625 287.691406 561.375 L 287.6875 561.5 C 287.523438 564.886719 287.441406 568.359375 287.40625 571.027344 " fill-opacity="1" fill-rule="nonzero"/><path fill="#e64a4d" d="M 299.316406 585.367188 C 306.699219 586.054688 314.085938 586.742188 321.46875 587.453125 C 334.089844 588.660156 346.902344 589.921875 359.375 587.082031 C 367.339844 585.261719 379.25 580.414062 378.902344 566.792969 C 378.859375 565.351562 378.375 564.164062 377.59375 563.171875 C 377.328125 567.710938 374.839844 577.445312 358.867188 580.332031 C 357.773438 580.53125 356.671875 580.714844 355.570312 580.890625 C 348.335938 582.039062 341.035156 582.5625 333.734375 581.253906 L 333.347656 581.183594 C 332.945312 581.105469 332.539062 581.019531 332.136719 580.9375 C 327.960938 580.035156 323.902344 578.628906 319.824219 577.464844 L 319.8125 577.457031 C 319.585938 577.394531 319.363281 577.335938 319.144531 577.273438 C 318.53125 577.101562 317.925781 576.9375 317.3125 576.78125 L 317.285156 576.777344 C 314.164062 575.988281 311.011719 575.429688 307.757812 575.4375 L 307.410156 575.4375 C 306.441406 575.453125 305.445312 575.515625 304.4375 575.597656 C 298.609375 576.078125 292.371094 577.089844 287.90625 571.671875 L 287.734375 571.460938 C 287.621094 571.320312 287.515625 571.179688 287.40625 571.027344 L 287.40625 571.332031 C 287.371094 573.964844 287.382812 575.746094 287.382812 575.746094 C 285 585.652344 294.964844 584.960938 299.316406 585.367188 " fill-opacity="1" fill-rule="nonzero"/><path fill="#115486" d="M 195.429688 149.316406 C 195.429688 149.316406 204.339844 162.007812 200.144531 171.339844 L 192.207031 159.652344 L 195.429688 149.316406 " fill-opacity="1" fill-rule="nonzero"/><path fill="#1d4867" d="M 106.632812 307.328125 C 106.632812 307.328125 99.292969 326.496094 100.539062 349.464844 C 101.949219 375.363281 123.15625 395.769531 149.078125 396.375 L 254.171875 398.835938 L 280.550781 545.695312 L 332.800781 532.25 C 332.800781 532.25 300.878906 359.378906 288.515625 350.542969 C 276.148438 341.714844 199.800781 336.921875 199.800781 336.921875 L 196.828125 307.328125 L 106.632812 307.328125 " fill-opacity="1" fill-rule="nonzero"/><path fill="#ffad81" d="M 233.632812 58.414062 C 244.476562 65.972656 249.929688 79.226562 247.453125 92.21875 C 247.203125 93.535156 246.917969 94.609375 246.59375 95.257812 C 244.867188 98.710938 242.460938 104.417969 246.539062 110.671875 C 247.710938 112.46875 248.246094 113.972656 248.421875 115.203125 C 248.707031 117.253906 247.652344 119.265625 245.828125 120.253906 L 242.6875 121.957031 C 241.035156 122.847656 240.851562 124.40625 240.707031 126.089844 C 240.625 127.105469 240.839844 129.371094 240.613281 130.675781 C 240.394531 131.960938 238.84375 132.328125 237.542969 132.390625 L 237.410156 132.398438 C 237.113281 132.386719 235.503906 132.386719 235.363281 132.113281 C 235.730469 132.839844 236.4375 133.316406 236.808594 134.050781 C 237.078125 134.570312 237.390625 135.785156 236.734375 136.203125 C 235.066406 137.269531 233.160156 137.875 232.417969 139.789062 C 232.042969 140.742188 231.84375 141.765625 231.519531 142.738281 C 230.523438 145.652344 227.179688 150.25 223.523438 149.277344 C 221.398438 148.710938 213.503906 146.011719 209.039062 144.472656 C 207.148438 143.816406 205.050781 144.363281 203.714844 145.855469 C 199.449219 150.636719 190.070312 161.097656 185.367188 166.039062 C 180.746094 170.894531 158.011719 145.484375 152.191406 134.152344 C 151.152344 132.121094 153.707031 119.257812 153.707031 119.257812 L 160.796875 60.570312 C 165.558594 39.175781 197.433594 42.097656 217.816406 50.128906 C 223.34375 52.308594 228.78125 55.03125 233.632812 58.414062 " fill-opacity="1" fill-rule="nonzero"/><path fill="#4a2c1d" d="M 244.285156 92.339844 C 241.890625 91.5625 235.714844 90.261719 232.503906 90.914062 C 231.886719 91.042969 231.476562 91.742188 231.601562 92.457031 L 231.652344 92.753906 C 231.746094 93.308594 232.136719 93.722656 232.613281 93.800781 C 236.496094 93.867188 240.230469 94.363281 243.773438 95.425781 C 244.355469 95.507812 244.898438 95.050781 245.011719 94.382812 C 245.128906 93.707031 244.851562 92.527344 244.285156 92.339844 " fill-opacity="1" fill-rule="nonzero"/><path fill="#42210b" d="M 236.960938 102.554688 C 236.792969 104.179688 237.414062 105.574219 238.351562 105.671875 C 239.292969 105.769531 240.183594 104.53125 240.351562 102.910156 C 240.519531 101.28125 239.898438 99.882812 238.960938 99.789062 C 238.027344 99.691406 237.128906 100.933594 236.960938 102.554688 " fill-opacity="1" fill-rule="nonzero"/><path fill="#42210b" d="M 242.640625 100.25 C 241.746094 99.867188 240.851562 99.675781 239.96875 99.550781 C 239.519531 99.476562 239.074219 99.46875 238.632812 99.429688 C 238.191406 99.410156 237.746094 99.421875 237.304688 99.417969 C 236.867188 99.445312 236.425781 99.46875 235.980469 99.511719 C 235.539062 99.582031 235.101562 99.617188 234.660156 99.722656 C 233.785156 99.902344 232.90625 100.144531 232.039062 100.59375 L 232.015625 100.605469 L 231.992188 100.683594 L 232.042969 100.710938 L 237.34375 100.601562 L 242.640625 100.375 L 242.699219 100.316406 L 242.664062 100.261719 L 242.640625 100.25 " fill-opacity="1" fill-rule="nonzero"/><path fill="#573218" d="M 213.328125 71.199219 C 214.832031 71.527344 216.71875 73.230469 218.078125 73.964844 C 221.824219 75.972656 225.710938 77.753906 229.734375 79.132812 C 237.78125 81.890625 249.378906 83.964844 255.546875 76.296875 C 260.894531 69.644531 265.433594 50.707031 251.339844 53.0625 C 249.480469 53.375 247.578125 52.828125 246.179688 51.558594 C 234.816406 41.300781 184.160156 0.0429688 154.679688 50.609375 C 136.859375 81.167969 153.707031 119.257812 153.707031 119.257812 L 183.628906 110.148438 C 185.570312 109 187.371094 107.628906 189.003906 106.0625 L 200.539062 95.167969 C 200.539062 95.167969 204.269531 103.753906 212.878906 85.019531 C 212.878906 85.019531 214.808594 79.238281 213.28125 71.1875 L 213.328125 71.199219 " fill-opacity="1" fill-rule="nonzero"/><path fill="#ffad81" d="M 200.253906 98.066406 C 200.539062 95.519531 199.640625 92.972656 197.789062 91.195312 C 195.097656 88.605469 190.914062 86.484375 187.230469 92.621094 C 182.863281 99.914062 187.773438 108.859375 190.820312 113.25 C 192.980469 116.363281 197.886719 115.476562 198.691406 111.769531 L 198.75 111.472656 L 200.253906 98.066406 " fill-opacity="1" fill-rule="nonzero"/><path fill="#eb8a69" d="M 200.289062 96.253906 C 200.257812 95.722656 200.171875 95.191406 200.042969 94.667969 C 199.902344 94.148438 199.710938 93.640625 199.480469 93.152344 C 199.238281 92.667969 198.953125 92.203125 198.621094 91.769531 C 198.289062 91.332031 197.910156 90.9375 197.519531 90.570312 C 196.730469 89.828125 195.835938 89.171875 194.8125 88.714844 C 194.304688 88.496094 193.75 88.332031 193.179688 88.265625 C 192.613281 88.191406 192.027344 88.226562 191.460938 88.359375 C 190.894531 88.488281 190.355469 88.726562 189.871094 89.023438 C 189.386719 89.328125 188.949219 89.695312 188.554688 90.089844 C 187.761719 90.882812 187.125 91.789062 186.585938 92.742188 C 185.488281 94.667969 184.960938 96.898438 184.964844 99.097656 C 184.984375 101.300781 185.453125 103.464844 186.183594 105.496094 C 186.550781 106.511719 186.988281 107.503906 187.464844 108.46875 C 187.941406 109.429688 188.472656 110.371094 189.042969 111.28125 C 189.324219 111.734375 189.625 112.183594 189.921875 112.625 C 190.074219 112.847656 190.226562 113.0625 190.382812 113.285156 L 190.5 113.449219 L 190.632812 113.617188 L 190.914062 113.941406 C 191.695312 114.78125 192.800781 115.308594 193.921875 115.386719 C 194.484375 115.433594 195.042969 115.367188 195.582031 115.21875 C 196.117188 115.066406 196.625 114.824219 197.066406 114.492188 C 197.503906 114.160156 197.894531 113.757812 198.167969 113.289062 C 198.449219 112.816406 198.628906 112.304688 198.722656 111.773438 L 198.664062 111.761719 C 198.546875 112.277344 198.34375 112.773438 198.050781 113.214844 C 197.773438 113.65625 197.382812 114.03125 196.957031 114.332031 C 196.519531 114.632812 196.03125 114.847656 195.523438 114.976562 C 195.011719 115.089844 194.480469 115.136719 193.957031 115.078125 C 192.90625 114.96875 191.90625 114.460938 191.210938 113.675781 L 190.960938 113.367188 L 190.734375 113.046875 C 190.582031 112.828125 190.4375 112.609375 190.285156 112.386719 C 190 111.945312 189.714844 111.496094 189.445312 111.039062 C 188.355469 109.222656 187.414062 107.308594 186.714844 105.3125 C 186.015625 103.3125 185.558594 101.214844 185.558594 99.097656 C 185.546875 96.988281 186.042969 94.867188 187.074219 93.011719 C 187.585938 92.089844 188.191406 91.210938 188.925781 90.453125 C 189.292969 90.082031 189.695312 89.730469 190.140625 89.449219 C 190.582031 89.164062 191.066406 88.9375 191.578125 88.808594 C 192.085938 88.679688 192.613281 88.644531 193.140625 88.699219 C 193.664062 88.746094 194.175781 88.890625 194.667969 89.089844 C 195.640625 89.492188 196.519531 90.101562 197.3125 90.804688 C 197.707031 91.152344 198.085938 91.527344 198.425781 91.933594 C 198.757812 92.339844 199.054688 92.777344 199.304688 93.246094 C 199.800781 94.175781 200.113281 95.210938 200.230469 96.257812 L 200.289062 96.253906 " fill-opacity="1" fill-rule="nonzero"/><path fill="#faa075" d="M 196.269531 100.203125 C 196.71875 98.503906 196.09375 96.695312 194.671875 95.664062 C 193.050781 94.488281 190.917969 94.113281 189.421875 98.21875 C 187.640625 103.089844 191.238281 106.34375 193.980469 108.015625 C 195.457031 108.925781 197.269531 107.480469 196.710938 105.835938 C 196.625 105.574219 196.511719 105.300781 196.378906 105.007812 C 195.667969 103.472656 195.902344 101.605469 196.269531 100.203125 " fill-opacity="1" fill-rule="nonzero"/><path fill="#1675a7" d="M 100.90625 333.121094 C 113.117188 336.277344 199.933594 337.109375 199.933594 337.109375 L 204.019531 260.980469 C 204.019531 260.980469 205.09375 255.523438 206.300781 247.09375 C 209.640625 223.652344 208.542969 199.679688 203.113281 176.777344 L 201.53125 171.019531 L 201.496094 170.902344 L 201.464844 170.792969 L 201.453125 170.8125 L 201.285156 171.214844 L 197.527344 180.34375 C 197.527344 180.34375 181.054688 152.1875 147.488281 138.914062 C 147.488281 138.914062 147.144531 139.191406 146.503906 139.824219 C 146.339844 141.050781 141.585938 143.898438 140.675781 144.730469 C 136.773438 148.296875 133.398438 152.40625 130.410156 156.765625 C 120.597656 171.066406 115.863281 185.667969 115.105469 202.972656 C 114.335938 220.585938 114.265625 238.125 112.378906 255.652344 C 109.046875 286.550781 100.898438 333.121094 100.90625 333.121094 " fill-opacity="1" fill-rule="nonzero"/><path fill="#2293c1" d="M 149.871094 129.226562 C 156.578125 130.734375 182.378906 147.113281 187.453125 151.976562 C 193.0625 157.355469 198.082031 163.664062 201.542969 171 L 196.902344 182.535156 C 196.902344 182.535156 179.949219 159.488281 146.421875 140.304688 C 146.421875 140.304688 148.285156 128.871094 149.871094 129.226562 " fill-opacity="1" fill-rule="nonzero"/><path fill="#ffad81" d="M 260.09375 264.523438 C 260.09375 264.523438 291.882812 256.671875 313.671875 281.070312 C 314.582031 282.089844 314.109375 283.664062 312.742188 283.707031 L 263.921875 285.132812 L 260.09375 264.523438 " fill-opacity="1" fill-rule="nonzero"/><path fill="#2295c5" d="M 132.480469 185.21875 C 130.109375 194.339844 130.824219 204.003906 134.453125 212.707031 C 143.863281 235.25 166.25 284.800781 181.257812 284.800781 C 200.683594 284.800781 263.628906 284.832031 263.628906 284.832031 L 264.125 262.933594 L 205.101562 245.050781 C 203.265625 244.488281 200.191406 236.304688 199.285156 234.738281 C 195.550781 228.25 192.40625 221.4375 189.175781 214.628906 C 183.707031 203.09375 178.234375 191.554688 172.765625 180.011719 C 169.417969 172.964844 166.367188 166.085938 158.84375 162.683594 C 145.792969 156.777344 132.480469 172.726562 132.480469 185.21875 " fill-opacity="1" fill-rule="nonzero"/><g clip-path="url(#id1)"><path fill="#d58a6f" d="M 603.1875 292.132812 L 240.347656 292.132812 C 236.863281 292.132812 234.035156 294.679688 234.035156 297.816406 L 234.035156 307.027344 C 234.035156 310.167969 236.863281 312.710938 240.347656 312.710938 L 603.1875 312.710938 C 606.675781 312.710938 609.496094 310.167969 609.496094 307.027344 L 609.496094 297.816406 C 609.496094 294.679688 606.675781 292.132812 603.1875 292.132812 " fill-opacity="1" fill-rule="nonzero"/></g><path fill="#d58a6f" d="M 292.914062 588.007812 L 277.566406 588.007812 L 277.566406 308.730469 L 292.914062 308.730469 L 292.914062 588.007812 " fill-opacity="1" fill-rule="nonzero"/><path fill="#d58a6f" d="M 570.59375 590 L 555.246094 590 L 555.246094 310.722656 L 570.59375 310.722656 L 570.59375 590 " fill-opacity="1" fill-rule="nonzero"/><path fill="#68943c" d="M 520.925781 181.242188 C 520.375 181.980469 519.632812 182.878906 518.421875 183.953125 L 519.402344 184.484375 C 520.007812 183.316406 520.828125 182.269531 521.925781 181.363281 C 521.925781 181.363281 521.40625 180.605469 520.925781 181.242188 " fill-opacity="1" fill-rule="nonzero"/><path fill="#6a973d" d="M 520.757812 181.488281 L 520.753906 181.5625 C 520.753906 181.5625 526.269531 182.773438 531.21875 180.472656 C 535.425781 178.507812 537.601562 173.972656 538.164062 172.660156 C 537.597656 172.453125 521.492188 179.890625 520.757812 181.488281 " fill-opacity="1" fill-rule="nonzero"/><path fill="#74a13f" d="M 528.367188 171.894531 C 521.300781 174.066406 520.792969 180.707031 520.757812 181.488281 L 520.777344 181.445312 C 521.75 179.773438 537.601562 172.457031 538.164062 172.660156 C 538.261719 172.433594 538.308594 172.300781 538.308594 172.300781 C 538.308594 172.300781 533.582031 170.296875 528.367188 171.894531 " fill-opacity="1" fill-rule="nonzero"/><path fill="#5d2d23" d="M 514.507812 177.449219 L 514.496094 177.453125 L 514.488281 177.441406 C 514.257812 177.125 513.46875 177.320312 512.734375 177.871094 C 512 178.421875 511.585938 179.121094 511.828125 179.433594 L 512.035156 179.523438 C 512.839844 179.621094 513.609375 179.929688 514.210938 180.484375 C 516.882812 182.925781 519.175781 187.875 519.175781 187.875 L 520.925781 187.292969 C 519.996094 184.769531 514.507812 177.449219 514.507812 177.449219 " fill-opacity="1" fill-rule="nonzero"/><path fill="#f76363" d="M 535.859375 185.566406 C 532.351562 183.8125 527.785156 183.964844 523.007812 186.074219 C 522.210938 186.429688 521.375 186.570312 520.507812 186.570312 L 520.4375 186.570312 C 519.570312 186.570312 518.738281 186.429688 517.933594 186.074219 C 508.058594 181.703125 499.039062 185.742188 498.558594 197.625 C 498.390625 201.765625 499.515625 205.863281 501.089844 209.691406 C 503.09375 214.578125 506.726562 219.082031 511.226562 220.902344 C 538.679688 216.058594 537.511719 194.332031 535.859375 185.566406 " fill-opacity="1" fill-rule="nonzero"/><path fill="#e64a4d" d="M 542.386719 197.625 C 542.136719 191.484375 539.605469 187.4375 535.859375 185.566406 C 537.511719 194.332031 538.679688 216.058594 511.226562 220.902344 C 513.382812 221.769531 515.730469 222.019531 518.195312 221.40625 C 519.6875 221.035156 521.253906 221.035156 522.746094 221.40625 C 530.371094 223.308594 536.890625 216.910156 539.859375 209.691406 C 541.429688 205.863281 542.550781 201.765625 542.386719 197.625 " fill-opacity="1" fill-rule="nonzero"/><path fill="#fe9590" d="M 503.851562 200.183594 C 502.808594 194.078125 506.683594 190.621094 508.183594 189.535156 C 508.464844 189.332031 508.796875 189.226562 509.132812 189.226562 C 509.261719 189.226562 509.390625 189.238281 509.519531 189.273438 C 510.917969 189.625 510.671875 190.554688 510.265625 191.238281 C 510.039062 191.617188 509.742188 191.949219 509.398438 192.230469 C 504.699219 196.03125 503.851562 200.183594 503.851562 200.183594 " fill-opacity="1" fill-rule="nonzero"/><path fill="#1675a7" d="M 570.132812 292.304688 L 463.925781 292.304688 L 463.925781 271.640625 L 570.132812 271.640625 L 570.132812 292.304688 " fill-opacity="1" fill-rule="nonzero"/><path fill="#2295c5" d="M 509.164062 285.945312 L 469.828125 285.945312 L 469.828125 278 L 509.164062 278 L 509.164062 285.945312 " fill-opacity="1" fill-rule="nonzero"/><path fill="#f76363" d="M 578.984375 271.914062 L 474.746094 271.914062 L 474.746094 246.808594 L 578.984375 246.808594 L 578.984375 271.914062 " fill-opacity="1" fill-rule="nonzero"/><path fill="#e64a4d" d="M 487.449219 268.242188 L 484.21875 268.242188 L 484.21875 250.480469 L 487.449219 250.480469 L 487.449219 268.242188 " fill-opacity="1" fill-rule="nonzero"/><path fill="#e64a4d" d="M 492.289062 268.242188 L 489.0625 268.242188 L 489.0625 250.480469 L 492.289062 250.480469 L 492.289062 268.242188 " fill-opacity="1" fill-rule="nonzero"/><path fill="#ffb74c" d="M 569.148438 246.6875 L 464.910156 246.6875 L 464.910156 221.582031 L 569.148438 221.582031 L 569.148438 246.6875 " fill-opacity="1" fill-rule="nonzero"/><path fill="#ffad34" d="M 497.359375 234.113281 C 497.359375 238.738281 493.617188 242.480469 489.003906 242.480469 C 484.390625 242.480469 480.644531 238.738281 480.644531 234.113281 C 480.644531 229.5 484.390625 225.757812 489.003906 225.757812 C 493.617188 225.757812 497.359375 229.5 497.359375 234.113281 " fill-opacity="1" fill-rule="nonzero"/><path fill="#ffad34" d="M 477.695312 242.480469 L 473.761719 242.480469 L 473.761719 225.757812 L 477.695312 225.757812 L 477.695312 242.480469 " fill-opacity="1" fill-rule="nonzero"/><path fill="#ffad34" d="M 563.25 242.480469 L 559.3125 242.480469 L 559.3125 225.757812 L 563.25 225.757812 L 563.25 242.480469 " fill-opacity="1" fill-rule="nonzero"/><path fill="#ffad34" d="M 557.347656 242.480469 L 553.417969 242.480469 L 553.417969 225.757812 L 557.347656 225.757812 L 557.347656 242.480469 " fill-opacity="1" fill-rule="nonzero"/><path fill="#ffb74c" d="M 240.828125 418.523438 L 85.203125 418.523438 L 85.203125 395.707031 L 223.78125 395.707031 C 233.195312 395.707031 240.828125 403.339844 240.828125 412.765625 L 240.828125 418.523438 " fill-opacity="1" fill-rule="nonzero"/><path fill="#d58a6f" d="M 236.535156 413.519531 L 86.898438 413.519531 L 86.898438 331.199219 L 85.382812 331.199219 C 85.5 284.5 75.824219 245.136719 67.113281 219.226562 C 56.460938 187.53125 45.175781 168.941406 44.703125 168.167969 C 43.269531 165.832031 40.269531 165.132812 38.003906 166.613281 C 35.730469 168.085938 35.054688 171.179688 36.488281 173.519531 C 36.597656 173.699219 47.640625 191.890625 57.933594 222.507812 C 67.457031 250.832031 78.171875 295.714844 75.148438 348.660156 L 75.140625 348.824219 L 75.71875 423.539062 L 236.535156 423.539062 C 239.214844 423.539062 241.394531 421.292969 241.394531 418.523438 C 241.394531 415.761719 239.214844 413.519531 236.535156 413.519531 " fill-opacity="1" fill-rule="nonzero"/><path fill="#ffb74c" d="M 50.726562 181.222656 C 48.570312 176.933594 46.328125 175.011719 45.78125 170.75 C 44.800781 163.191406 65.085938 169.683594 75.640625 187.066406 C 93.558594 216.5625 113.152344 256.644531 107.554688 304.507812 C 105.777344 319.6875 102.839844 328.585938 99.652344 333.671875 C 95.375 340.488281 84.855469 337.46875 84.796875 329.414062 C 84.351562 268.363281 71.074219 221.683594 50.726562 181.222656 " fill-opacity="1" fill-rule="nonzero"/><path fill="#d58a6f" d="M 268.488281 587.511719 L 256.648438 587.511719 L 188.082031 427.519531 L 184.953125 420.214844 L 192.121094 417.5 L 201.058594 417.5 L 205.03125 427.519531 L 268.488281 587.511719 " fill-opacity="1" fill-rule="nonzero"/><path fill="#d58a6f" d="M 130.179688 420.613281 L 58.644531 587.511719 L 46.800781 587.511719 L 115.246094 414.941406 L 130.179688 420.613281 " fill-opacity="1" fill-rule="nonzero"/></svg>